<svg width="48" height="48" viewBox="0 0 48 48" fill="none" xmlns="http://www.w3.org/2000/svg">
<g clip-path="url(#clip0_4_74)">
<rect width="48" height="48" fill="white"/>
<rect width="48" height="48" fill="black"/>
<path d="M10.482 21.96L10.4235 20.7445L12.601 18.45H13.771L11.808 20.5625L11.223 21.1865L10.482 21.96ZM9.5395 23V18.45H10.586V23H9.5395ZM12.653 23L11.0345 21.0175L11.7235 20.27L13.8815 23H12.653ZM17.5525 23.052C17.1799 23.052 16.8484 22.974 16.558 22.818C16.272 22.662 16.0445 22.4497 15.8755 22.181C15.7109 21.908 15.6285 21.5982 15.6285 21.2515C15.6285 20.9005 15.7109 20.5907 15.8755 20.322C16.0445 20.049 16.272 19.8367 16.558 19.685C16.8484 19.529 17.1799 19.451 17.5525 19.451C17.9209 19.451 18.2502 19.529 18.5405 19.685C18.8309 19.8367 19.0584 20.0468 19.223 20.3155C19.3877 20.5842 19.47 20.8962 19.47 21.2515C19.47 21.5982 19.3877 21.908 19.223 22.181C19.0584 22.4497 18.8309 22.662 18.5405 22.818C18.2502 22.974 17.9209 23.052 17.5525 23.052ZM17.5525 22.22C17.7215 22.22 17.8732 22.181 18.0075 22.103C18.1419 22.025 18.248 21.9145 18.326 21.7715C18.404 21.6242 18.443 21.4508 18.443 21.2515C18.443 21.0478 18.404 20.8745 18.326 20.7315C18.248 20.5885 18.1419 20.478 18.0075 20.4C17.8732 20.322 17.7215 20.283 17.5525 20.283C17.3835 20.283 17.2319 20.322 17.0975 20.4C16.9632 20.478 16.8549 20.5885 16.7725 20.7315C16.6945 20.8745 16.6555 21.0478 16.6555 21.2515C16.6555 21.4508 16.6945 21.6242 16.7725 21.7715C16.8549 21.9145 16.9632 22.025 17.0975 22.103C17.2319 22.181 17.3835 22.22 17.5525 22.22ZM23.0793 23.052C22.7803 23.052 22.4921 23.0173 22.2148 22.948C21.9418 22.8743 21.7251 22.7833 21.5648 22.675L21.9028 21.947C22.0631 22.0467 22.2516 22.129 22.4683 22.194C22.6893 22.2547 22.906 22.285 23.1183 22.285C23.3523 22.285 23.517 22.2568 23.6123 22.2005C23.712 22.1442 23.7618 22.0662 23.7618 21.9665C23.7618 21.8842 23.7228 21.8235 23.6448 21.7845C23.5711 21.7412 23.4715 21.7087 23.3458 21.687C23.2201 21.6653 23.0815 21.6437 22.9298 21.622C22.7825 21.6003 22.633 21.5722 22.4813 21.5375C22.3296 21.4985 22.191 21.4422 22.0653 21.3685C21.9396 21.2948 21.8378 21.1952 21.7598 21.0695C21.6861 20.9438 21.6493 20.7813 21.6493 20.582C21.6493 20.361 21.7121 20.166 21.8378 19.997C21.9678 19.828 22.1541 19.6958 22.3968 19.6005C22.6395 19.5008 22.9298 19.451 23.2678 19.451C23.5061 19.451 23.7488 19.477 23.9958 19.529C24.2428 19.581 24.4486 19.6568 24.6133 19.7565L24.2753 20.478C24.1063 20.3783 23.9351 20.3112 23.7618 20.2765C23.5928 20.2375 23.4281 20.218 23.2678 20.218C23.0425 20.218 22.8778 20.2483 22.7738 20.309C22.6698 20.3697 22.6178 20.4477 22.6178 20.543C22.6178 20.6297 22.6546 20.6947 22.7283 20.738C22.8063 20.7813 22.9081 20.816 23.0338 20.842C23.1595 20.868 23.296 20.8918 23.4433 20.9135C23.595 20.9308 23.7466 20.959 23.8983 20.998C24.05 21.037 24.1865 21.0933 24.3078 21.167C24.4335 21.2363 24.5353 21.3338 24.6133 21.4595C24.6913 21.5808 24.7303 21.7412 24.7303 21.9405C24.7303 22.1572 24.6653 22.35 24.5353 22.519C24.4053 22.6837 24.2168 22.8137 23.9698 22.909C23.7271 23.0043 23.4303 23.052 23.0793 23.052ZM28.8464 23.052C28.4478 23.052 28.0968 22.974 27.7934 22.818C27.4944 22.662 27.2626 22.4497 27.0979 22.181C26.9333 21.908 26.8509 21.5982 26.8509 21.2515C26.8509 20.9005 26.9311 20.5907 27.0914 20.322C27.2561 20.049 27.4793 19.8367 27.7609 19.685C28.0426 19.529 28.3611 19.451 28.7164 19.451C29.0588 19.451 29.3664 19.5247 29.6394 19.672C29.9168 19.815 30.1356 20.023 30.2959 20.296C30.4563 20.5647 30.5364 20.8875 30.5364 21.2645C30.5364 21.3035 30.5343 21.349 30.5299 21.401C30.5256 21.4487 30.5213 21.4942 30.5169 21.5375H27.6764V20.946H29.9839L29.5939 21.1215C29.5939 20.9395 29.5571 20.7813 29.4834 20.647C29.4098 20.5127 29.3079 20.4087 29.1779 20.335C29.0479 20.257 28.8963 20.218 28.7229 20.218C28.5496 20.218 28.3958 20.257 28.2614 20.335C28.1314 20.4087 28.0296 20.5148 27.9559 20.6535C27.8823 20.7878 27.8454 20.9482 27.8454 21.1345V21.2905C27.8454 21.4812 27.8866 21.6502 27.9689 21.7975C28.0556 21.9405 28.1748 22.051 28.3264 22.129C28.4824 22.2027 28.6644 22.2395 28.8724 22.2395C29.0588 22.2395 29.2213 22.2113 29.3599 22.155C29.5029 22.0987 29.6329 22.0142 29.7499 21.9015L30.2894 22.4865C30.1291 22.6685 29.9276 22.8093 29.6849 22.909C29.4423 23.0043 29.1628 23.052 28.8464 23.052ZM35.092 19.451C35.3693 19.451 35.6163 19.5073 35.833 19.62C36.054 19.7283 36.2273 19.8973 36.353 20.127C36.4787 20.3523 36.5415 20.6427 36.5415 20.998V23H35.5275V21.154C35.5275 20.8723 35.4647 20.6643 35.339 20.53C35.2177 20.3957 35.0443 20.3285 34.819 20.3285C34.6587 20.3285 34.5135 20.3632 34.3835 20.4325C34.2578 20.4975 34.1582 20.5993 34.0845 20.738C34.0152 20.8767 33.9805 21.0543 33.9805 21.271V23H32.9665V19.503H33.935V20.4715L33.753 20.179C33.8787 19.945 34.0585 19.7652 34.2925 19.6395C34.5265 19.5138 34.793 19.451 35.092 19.451ZM11.0085 31.052C10.6618 31.052 10.3303 31 10.014 30.896C9.69767 30.7877 9.4485 30.649 9.2665 30.48L9.507 29.973C9.68033 30.1247 9.90133 30.2503 10.17 30.35C10.4387 30.4497 10.7182 30.4995 11.0085 30.4995C11.2728 30.4995 11.4873 30.4692 11.652 30.4085C11.8167 30.3478 11.938 30.2655 12.016 30.1615C12.094 30.0532 12.133 29.9318 12.133 29.7975C12.133 29.6415 12.081 29.5158 11.977 29.4205C11.8773 29.3252 11.7452 29.2493 11.5805 29.193C11.4202 29.1323 11.2425 29.0803 11.0475 29.037C10.8525 28.9937 10.6553 28.9438 10.456 28.8875C10.261 28.8268 10.0812 28.751 9.9165 28.66C9.75617 28.569 9.62617 28.4477 9.5265 28.296C9.42683 28.14 9.377 27.9407 9.377 27.698C9.377 27.464 9.43767 27.2495 9.559 27.0545C9.68467 26.8552 9.87533 26.697 10.131 26.58C10.391 26.4587 10.7203 26.398 11.119 26.398C11.3833 26.398 11.6455 26.4327 11.9055 26.502C12.1655 26.5713 12.3908 26.671 12.5815 26.801L12.367 27.321C12.172 27.191 11.9662 27.0978 11.7495 27.0415C11.5328 26.9808 11.3227 26.9505 11.119 26.9505C10.8633 26.9505 10.6532 26.983 10.4885 27.048C10.3238 27.113 10.2025 27.1997 10.1245 27.308C10.0508 27.4163 10.014 27.5377 10.014 27.672C10.014 27.8323 10.0638 27.9602 10.1635 28.0555C10.2675 28.1508 10.3997 28.2267 10.56 28.283C10.7247 28.3393 10.9045 28.3913 11.0995 28.439C11.2945 28.4823 11.4895 28.5322 11.6845 28.5885C11.8838 28.6448 12.0637 28.7185 12.224 28.8095C12.3887 28.9005 12.5208 29.0218 12.6205 29.1735C12.7202 29.3252 12.77 29.5202 12.77 29.7585C12.77 29.9882 12.7072 30.2027 12.5815 30.402C12.4558 30.597 12.2608 30.7552 11.9965 30.8765C11.7365 30.9935 11.4072 31.052 11.0085 31.052ZM13.7796 32.3C13.615 32.3 13.4546 32.2718 13.2986 32.2155C13.1426 32.1635 13.0083 32.0855 12.8956 31.9815L13.1621 31.5135C13.2488 31.5958 13.3441 31.6587 13.4481 31.702C13.5521 31.7453 13.6626 31.767 13.7796 31.767C13.9313 31.767 14.057 31.728 14.1566 31.65C14.2563 31.572 14.3495 31.4333 14.4361 31.234L14.6506 30.7595L14.7156 30.6815L16.0676 27.555H16.6786L15.0081 31.3445C14.9085 31.5872 14.7958 31.7778 14.6701 31.9165C14.5488 32.0552 14.4145 32.1527 14.2671 32.209C14.1198 32.2697 13.9573 32.3 13.7796 32.3ZM14.5986 31.1105L13.0256 27.555H13.6756L15.0146 30.623L14.5986 31.1105ZM18.2696 31.039C17.9836 31.039 17.7106 31 17.4506 30.922C17.1949 30.844 16.9934 30.7487 16.8461 30.636L17.1061 30.142C17.2534 30.2417 17.4354 30.3262 17.6521 30.3955C17.8687 30.4648 18.0897 30.4995 18.3151 30.4995C18.6054 30.4995 18.8134 30.4583 18.9391 30.376C19.0691 30.2937 19.1341 30.1788 19.1341 30.0315C19.1341 29.9232 19.0951 29.8387 19.0171 29.778C18.9391 29.7173 18.8351 29.6718 18.7051 29.6415C18.5794 29.6112 18.4386 29.5852 18.2826 29.5635C18.1266 29.5375 17.9706 29.5072 17.8146 29.4725C17.6586 29.4335 17.5156 29.3815 17.3856 29.3165C17.2556 29.2472 17.1516 29.154 17.0736 29.037C16.9956 28.9157 16.9566 28.7553 16.9566 28.556C16.9566 28.348 17.0151 28.166 17.1321 28.01C17.2491 27.854 17.4137 27.7348 17.6261 27.6525C17.8427 27.5658 18.0984 27.5225 18.3931 27.5225C18.6184 27.5225 18.8459 27.5507 19.0756 27.607C19.3096 27.659 19.5002 27.7348 19.6476 27.8345L19.3811 28.3285C19.2251 28.2245 19.0626 28.153 18.8936 28.114C18.7246 28.075 18.5556 28.0555 18.3866 28.0555C18.1136 28.0555 17.9099 28.101 17.7756 28.192C17.6412 28.2787 17.5741 28.3913 17.5741 28.53C17.5741 28.647 17.6131 28.738 17.6911 28.803C17.7734 28.8637 17.8774 28.9113 18.0031 28.946C18.1331 28.9807 18.2761 29.011 18.4321 29.037C18.5881 29.0587 18.7441 29.089 18.9001 29.128C19.0561 29.1627 19.1969 29.2125 19.3226 29.2775C19.4526 29.3425 19.5566 29.4335 19.6346 29.5505C19.7169 29.6675 19.7581 29.8235 19.7581 30.0185C19.7581 30.2265 19.6974 30.4063 19.5761 30.558C19.4547 30.7097 19.2836 30.8288 19.0626 30.9155C18.8416 30.9978 18.5772 31.039 18.2696 31.039ZM21.7859 31.039C21.4392 31.039 21.1706 30.9458 20.9799 30.7595C20.7892 30.5732 20.6939 30.3067 20.6939 29.96V26.801H21.3179V29.934C21.3179 30.1203 21.3634 30.2633 21.4544 30.363C21.5497 30.4627 21.6841 30.5125 21.8574 30.5125C22.0524 30.5125 22.2149 30.4583 22.3449 30.35L22.5399 30.7985C22.4446 30.8808 22.3297 30.9415 22.1954 30.9805C22.0654 31.0195 21.9289 31.039 21.7859 31.039ZM20.1089 28.0685V27.555H22.3059V28.0685H20.1089ZM24.7791 31.039C24.4107 31.039 24.0857 30.9632 23.8041 30.8115C23.5267 30.6598 23.3101 30.4518 23.1541 30.1875C23.0024 29.9232 22.9266 29.6198 22.9266 29.2775C22.9266 28.9352 23.0002 28.6318 23.1476 28.3675C23.2992 28.1032 23.5051 27.8973 23.7651 27.75C24.0294 27.5983 24.3262 27.5225 24.6556 27.5225C24.9892 27.5225 25.2839 27.5962 25.5396 27.7435C25.7952 27.8908 25.9946 28.0988 26.1376 28.3675C26.2849 28.6318 26.3586 28.9417 26.3586 29.297C26.3586 29.323 26.3564 29.3533 26.3521 29.388C26.3521 29.4227 26.3499 29.4552 26.3456 29.4855H23.4141V29.037H26.0206L25.7671 29.193C25.7714 28.972 25.7259 28.7748 25.6306 28.6015C25.5352 28.4282 25.4031 28.2938 25.2341 28.1985C25.0694 28.0988 24.8766 28.049 24.6556 28.049C24.4389 28.049 24.2461 28.0988 24.0771 28.1985C23.9081 28.2938 23.7759 28.4303 23.6806 28.608C23.5852 28.7813 23.5376 28.9807 23.5376 29.206V29.31C23.5376 29.5397 23.5896 29.7455 23.6936 29.9275C23.8019 30.1052 23.9514 30.2438 24.1421 30.3435C24.3327 30.4432 24.5516 30.493 24.7986 30.493C25.0022 30.493 25.1864 30.4583 25.3511 30.389C25.5201 30.3197 25.6674 30.2157 25.7931 30.077L26.1376 30.48C25.9816 30.662 25.7866 30.8007 25.5526 30.896C25.3229 30.9913 25.0651 31.039 24.7791 31.039ZM31.5995 27.5225C31.8769 27.5225 32.1217 27.5767 32.334 27.685C32.5464 27.7933 32.711 27.958 32.828 28.179C32.9494 28.4 33.01 28.6795 33.01 29.0175V31H32.386V29.089C32.386 28.7553 32.308 28.504 32.152 28.335C31.996 28.166 31.7772 28.0815 31.4955 28.0815C31.2875 28.0815 31.1055 28.1248 30.9495 28.2115C30.7935 28.2982 30.6722 28.426 30.5855 28.595C30.5032 28.764 30.462 28.9742 30.462 29.2255V31H29.838V29.089C29.838 28.7553 29.76 28.504 29.604 28.335C29.4524 28.166 29.2335 28.0815 28.9475 28.0815C28.7439 28.0815 28.564 28.1248 28.408 28.2115C28.252 28.2982 28.1307 28.426 28.044 28.595C27.9574 28.764 27.914 28.9742 27.914 29.2255V31H27.29V27.555H27.888V28.4715L27.7905 28.2375C27.8989 28.0122 28.0657 27.8367 28.291 27.711C28.5164 27.5853 28.7785 27.5225 29.0775 27.5225C29.4069 27.5225 29.6907 27.6048 29.929 27.7695C30.1674 27.9298 30.3234 28.1747 30.397 28.504L30.1435 28.4C30.2475 28.1357 30.4295 27.9233 30.6895 27.763C30.9495 27.6027 31.2529 27.5225 31.5995 27.5225ZM35.2112 31.039C34.9252 31.039 34.6522 31 34.3922 30.922C34.1365 30.844 33.935 30.7487 33.7877 30.636L34.0477 30.142C34.195 30.2417 34.377 30.3262 34.5937 30.3955C34.8104 30.4648 35.0314 30.4995 35.2567 30.4995C35.547 30.4995 35.755 30.4583 35.8807 30.376C36.0107 30.2937 36.0757 30.1788 36.0757 30.0315C36.0757 29.9232 36.0367 29.8387 35.9587 29.778C35.8807 29.7173 35.7767 29.6718 35.6467 29.6415C35.521 29.6112 35.3802 29.5852 35.2242 29.5635C35.0682 29.5375 34.9122 29.5072 34.7562 29.4725C34.6002 29.4335 34.4572 29.3815 34.3272 29.3165C34.1972 29.2472 34.0932 29.154 34.0152 29.037C33.9372 28.9157 33.8982 28.7553 33.8982 28.556C33.8982 28.348 33.9567 28.166 34.0737 28.01C34.1907 27.854 34.3554 27.7348 34.5677 27.6525C34.7844 27.5658 35.04 27.5225 35.3347 27.5225C35.56 27.5225 35.7875 27.5507 36.0172 27.607C36.2512 27.659 36.4419 27.7348 36.5892 27.8345L36.3227 28.3285C36.1667 28.2245 36.0042 28.153 35.8352 28.114C35.6662 28.075 35.4972 28.0555 35.3282 28.0555C35.0552 28.0555 34.8515 28.101 34.7172 28.192C34.5829 28.2787 34.5157 28.3913 34.5157 28.53C34.5157 28.647 34.5547 28.738 34.6327 28.803C34.715 28.8637 34.819 28.9113 34.9447 28.946C35.0747 28.9807 35.2177 29.011 35.3737 29.037C35.5297 29.0587 35.6857 29.089 35.8417 29.128C35.9977 29.1627 36.1385 29.2125 36.2642 29.2775C36.3942 29.3425 36.4982 29.4335 36.5762 29.5505C36.6585 29.6675 36.6997 29.8235 36.6997 30.0185C36.6997 30.2265 36.639 30.4063 36.5177 30.558C36.3964 30.7097 36.2252 30.8288 36.0042 30.9155C35.7832 30.9978 35.5189 31.039 35.2112 31.039Z" fill="white"/>
<line x1="9" y1="16.5" x2="39" y2="16.5" stroke="white"/>
<path d="M39 16L39 31" stroke="white"/>
<line x1="32" y1="18" x2="32" y2="14" stroke="black" stroke-width="2"/>
<line x1="39" y1="27" x2="39" y2="25" stroke="black" stroke-width="2"/>
<line x1="39" y1="27" x2="39" y2="25" stroke="black" stroke-width="2"/>
</g>
<defs>
<clipPath id="clip0_4_74">
<rect width="48" height="48" fill="white"/>
</clipPath>
</defs>
</svg>
